<?xml version="1.0" encoding="utf-8"?>
<!-- Generator: Adobe Illustrator 25.2.1, SVG Export Plug-In . SVG Version: 6.00 Build 0)  -->
<svg version="1.1" id="Layer_1" xmlns="http://www.w3.org/2000/svg" xmlns:xlink="http://www.w3.org/1999/xlink" x="0px" y="0px"
	 viewBox="0 0 64 64" style="enable-background:new 0 0 64 64;" xml:space="preserve">
<style type="text/css">
	.st0{fill:none;stroke:#FFFFFF;stroke-width:3;}
</style>
<path class="st0" d="M11.1,8.4c-1.4,0-2.6,1.3-2.5,2.7c0,0,0,0.1,0,0.1c0.4,6,2,20.6,9.9,29.8c9.5,11,21.8,14.8,34.4,14.2
	c1.4-0.1,2.5-1.2,2.5-2.7v-9.6c0-1.8-1.3-3.4-3.1-3.9L46,37.7c-1.6-0.3-3.3,0.3-4.2,1.7l-1.4,2.1c-0.3,0.4-0.8,0.6-1.2,0.4
	c-3.2-1.4-16-7.4-17.5-17.5c-0.1-0.4,0.1-0.8,0.5-1l2.5-1.5c1.4-0.9,2.1-2.6,1.8-4.2l-1.4-6.4c-0.4-1.9-2.1-3.2-4-3.1L11.1,8.4z"/>
</svg>
