<?xml version="1.0" encoding="utf-8"?>
<!-- Generator: Adobe Illustrator 25.2.1, SVG Export Plug-In . SVG Version: 6.00 Build 0)  -->
<svg version="1.1" id="Layer_1" xmlns="http://www.w3.org/2000/svg" xmlns:xlink="http://www.w3.org/1999/xlink" x="0px" y="0px"
	 viewBox="0 0 64 64" style="enable-background:new 0 0 64 64;" xml:space="preserve">
<style type="text/css">
	.st0{fill:none;stroke:#FFFFFF;stroke-width:3;stroke-miterlimit:10;}
</style>
<path class="st0" d="M37.5,19.9c0-0.1,0.4-0.3,1.5-0.3h3.8c1.2,0,2.2-1,2.2-2.2l0,0l0,0v-6.6c0-1.2-1-2.2-2.2-2.3l0,0h-5.6
	c-3.1-0.1-6.2,1.1-8.4,3.3c-2.2,2.3-3.3,5.5-3.2,8.6v6h-4.4c-1.2,0-2.2,1-2.2,2.2l0,0v7.1c0,1.2,1,2.2,2.2,2.2h4.3v15.4
	c0,1.2,1,2.2,2.2,2.2H35c1.2,0,2.2-1,2.2-2.2l0,0l0,0V37.9h5.2c1.2,0,2.2-1,2.2-2.2v-7.1c0-1.2-1-2.2-2.2-2.2l0,0h-5.2v-5.2
	C37.2,20.8,37.3,20.3,37.5,19.9z"/>
</svg>
