<?xml version="1.0" encoding="utf-8"?>
<!-- Generator: Adobe Illustrator 25.2.1, SVG Export Plug-In . SVG Version: 6.00 Build 0)  -->
<svg version="1.1" id="Layer_1" xmlns="http://www.w3.org/2000/svg" xmlns:xlink="http://www.w3.org/1999/xlink" x="0px" y="0px"
	 viewBox="0 0 64 64" style="enable-background:new 0 0 64 64;" xml:space="preserve">
<style type="text/css">
	.st0{fill:none;stroke:#FFFFFF;stroke-width:3;stroke-linecap:round;}
</style>
<path class="st0" d="M34.3,24.1h-8.7v31.4h9V41.1c0-3.8,0.7-7.5,5.4-7.5s4.7,4.3,4.7,7.7v14.2h9V39.5c0-7.8-1.7-14.9-10.8-14.9
	c-3.4-0.1-6.7,0.5-8.5,3.2c0,0.1-0.1,0.1-0.1,0.1c0,0-0.1-0.1-0.1-0.1L34.3,24.1z"/>
<path class="st0" d="M10.9,24.1H20v31.4h-9.1V24.1z"/>
<path class="st0" d="M15.4,8.5c-2.9,0-5.3,2.3-5.3,5.2c0,2.9,2.3,5.3,5.2,5.3c2.9,0,5.3-2.3,5.3-5.2l0,0
	C20.7,10.9,18.4,8.5,15.4,8.5C15.5,8.5,15.5,8.5,15.4,8.5z"/>
</svg>
