<?xml version="1.0" encoding="utf-8"?>
<!-- Generator: Adobe Illustrator 25.2.1, SVG Export Plug-In . SVG Version: 6.00 Build 0)  -->
<svg version="1.1" id="Layer_1" xmlns="http://www.w3.org/2000/svg" xmlns:xlink="http://www.w3.org/1999/xlink" x="0px" y="0px"
	 viewBox="0 0 64 64" style="enable-background:new 0 0 64 64;" xml:space="preserve">
<style type="text/css">
	.st0{fill:none;stroke:#FFFFFF;stroke-width:3;stroke-linecap:round;}
</style>
<path class="st0" d="M54.5,12.3c0-0.1-0.1-0.2-0.2-0.1c-1.6,1.4-5.4,2.5-5.8,2.5c0,0-0.1,0-0.1,0c-2.8-4.4-9.2-3.2-9.2-3.2
	C29.8,13.5,30.8,23,31,24c0,0,0,0.1-0.1,0.1c-10.5,0.5-19.6-9.2-20.7-10.4c0,0-0.1-0.1-0.2,0c0,0,0,0,0,0C7.6,18.2,8.8,23.8,12.8,27
	c0.1,0,0.1,0.1,0,0.2c0,0,0,0,0,0c-1.4,0-2.7-0.3-4-0.8c-0.1,0-0.1,0-0.1,0.1c0.1,6.2,6.2,9,7.6,9.6c0.1,0,0.1,0.1,0.1,0.1
	c0,0,0,0.1-0.1,0.1c-1.3,0.3-2.6,0.4-3.9,0.3c-0.1,0-0.1,0-0.1,0.1c0,0,0,0,0,0c1.3,4.8,7.5,6.8,8.6,7.1c0.1,0,0.1,0.1,0.1,0.1
	c0,0,0,0,0,0c-3.9,3.4-11.4,4.3-13,4.5c-0.1,0-0.1,0.1-0.1,0.1c0,0,0,0,0,0.1c5.8,4,21.1,7.3,32.7-2.6c7-6.1,10.8-15,10.4-24.2
	c0,0,0-0.1,0-0.1c2.1-1.2,3.8-3,5.1-5.1c0-0.1,0-0.2-0.2-0.1c-1,0.4-2.1,0.4-3.2,0.2C52.8,16.7,54.5,13.8,54.5,12.3z"/>
</svg>
